<svg width="72" height="71" viewBox="0 0 72 71" fill="none" xmlns="http://www.w3.org/2000/svg">
<path d="M43.1363 26L50.1363 19M43.1363 26L34.9163 34.22M43.1363 26L49.1363 32L56.1363 25L50.1363 19M50.1363 19L54.1363 15M34.9163 34.22C35.9489 35.2389 36.7699 36.4521 37.3318 37.7896C37.8937 39.1271 38.1855 40.5625 38.1903 42.0133C38.1952 43.464 37.913 44.9014 37.3601 46.2426C36.8072 47.5838 35.9944 48.8025 34.9686 49.8283C33.9427 50.8541 32.7241 51.6669 31.3829 52.2198C30.0416 52.7728 28.6043 53.0549 27.1535 53.0501C25.7028 53.0452 24.2673 52.7534 22.9298 52.1915C21.5924 51.6296 20.3792 50.8087 19.3603 49.776C17.3565 47.7014 16.2478 44.9228 16.2729 42.0386C16.2979 39.1544 17.4548 36.3955 19.4943 34.356C21.5338 32.3165 24.2927 31.1596 27.1768 31.1346C30.061 31.1095 32.8396 32.2183 34.9143 34.222L34.9163 34.22Z" stroke="#4C4C4C" stroke-width="4" stroke-linecap="round" stroke-linejoin="round"/>
</svg>
