<svg width="72" height="71" viewBox="0 0 72 71" fill="none" xmlns="http://www.w3.org/2000/svg">
<path d="M26.1362 55H20.1362C19.0754 55 18.058 54.5786 17.3078 53.8284C16.5577 53.0783 16.1362 52.0609 16.1362 51V37C16.1362 35.9391 16.5577 34.9217 17.3078 34.1716C18.058 33.4214 19.0754 33 20.1362 33H26.1362M26.1362 55V33M26.1362 55H48.6962C49.6609 55.0109 50.597 54.6728 51.332 54.048C52.0671 53.4232 52.5516 52.5538 52.6962 51.6L55.4562 33.6C55.5432 33.0267 55.5045 32.4414 55.3429 31.8845C55.1812 31.3276 54.9004 30.8126 54.5199 30.375C54.1394 29.9375 53.6684 29.5879 53.1393 29.3504C52.6103 29.113 52.036 28.9934 51.4562 29H40.1362V21C40.1362 19.4087 39.5041 17.8826 38.3788 16.7574C37.2536 15.6321 35.7275 15 34.1362 15L26.1362 33" stroke="#4C4C4C" stroke-width="4" stroke-linecap="round" stroke-linejoin="round"/>
</svg>
