<svg width="41" height="24" viewBox="0 0 41 24" fill="none" xmlns="http://www.w3.org/2000/svg">
<g clip-path="url(#clip0_156_536)">
<path d="M36.0458 15.6428L21.6958 1.19994C21.5249 1.02852 21.3399 0.907373 21.1406 0.836516C20.9413 0.764516 20.7277 0.728516 20.4999 0.728516C20.2722 0.728516 20.0586 0.764516 19.8593 0.836516C19.66 0.907373 19.4749 1.02852 19.3041 1.19994L4.91139 15.6428C4.51278 16.0428 4.31348 16.5428 4.31348 17.1428C4.31348 17.7428 4.52702 18.2571 4.9541 18.6857C5.38118 19.1142 5.87945 19.3285 6.44889 19.3285C7.01834 19.3285 7.5166 19.1142 7.94368 18.6857L20.4999 6.08566L33.0562 18.6857C33.4548 19.0857 33.9457 19.2857 34.5288 19.2857C35.113 19.2857 35.6187 19.0714 36.0458 18.6428C36.4729 18.2142 36.6864 17.7142 36.6864 17.1428C36.6864 16.5714 36.4729 16.0714 36.0458 15.6428Z" fill="white"/>
</g>
<defs>
<clipPath id="clip0_156_536">
<rect width="24" height="41" fill="white" transform="matrix(-4.37114e-08 1 1 4.37114e-08 0 0)"/>
</clipPath>
</defs>
</svg>
