<svg width="22" height="22" viewBox="0 0 22 22" fill="none" xmlns="http://www.w3.org/2000/svg">
<rect y="0.5" width="22" height="21" rx="10.5" fill="#4C4C4C"/>
<path d="M14.4291 12.4663C14.7177 12.1909 14.759 11.7973 14.5116 11.4038C14.3055 11.0889 13.9344 10.9315 13.5221 11.0102C13.3572 11.0496 13.1923 11.1283 13.0274 11.2463C11.7493 12.0728 10.0177 12.0334 8.7396 11.207C8.65714 11.1676 8.57468 11.1283 8.49223 11.0889C8.03871 10.8922 7.5852 10.9709 7.33783 11.3644C7.04923 11.758 7.09046 12.1909 7.46151 12.545C7.54397 12.6238 7.62643 12.6631 7.66766 12.7418L7.70889 12.7812C8.28609 13.2141 8.98697 13.4896 9.894 13.6076L9.35803 14.1192C8.90452 14.5521 8.40978 15.0244 7.95626 15.4573C7.83258 15.5753 7.66766 15.7721 7.66766 16.0476C7.66766 16.4018 7.8738 16.756 8.24486 16.9134C8.36855 16.9921 8.49223 16.9921 8.61591 16.9921C8.82206 16.9921 9.06943 16.9134 9.23434 16.7166C9.85277 16.1263 10.3475 15.6541 10.8423 15.1818C10.8835 15.1424 10.8835 15.1424 10.8835 15.1424C10.8835 15.1424 10.9247 15.1424 10.9247 15.1818C11.2545 15.536 11.6256 15.8508 11.9554 16.205C12.1203 16.3624 12.2853 16.5199 12.4502 16.6773C12.6563 16.874 12.8212 16.9528 13.0686 16.9528C13.4397 16.9921 13.8519 16.756 14.0169 16.4018C14.1818 16.0869 14.0993 15.6934 13.8107 15.4573C13.3984 15.0637 12.9861 14.6308 12.5326 14.2373L11.8317 13.5683C12.2028 13.5289 12.6151 13.4502 12.9861 13.2928C13.6046 13.096 14.0581 12.8205 14.4291 12.4663Z" fill="white"/>
<path d="M10.8835 11.3644C12.6563 11.3644 14.0993 10.0263 14.0993 8.3341C14.0993 7.50766 13.7695 6.72057 13.1511 6.13025C12.5326 5.53994 11.7493 5.2251 10.9247 5.2251C9.15189 5.2251 7.75012 6.6025 7.70889 8.25539C7.70889 9.08184 8.03872 9.82958 8.65715 10.4199C9.23434 11.0496 10.0177 11.3644 10.8835 11.3644ZM9.97646 7.42895C10.2238 7.19283 10.5537 7.07476 10.8835 7.07476C11.6256 7.07476 12.1616 7.62572 12.1616 8.29475C12.1616 9.00313 11.5844 9.51474 10.8835 9.51474C10.1414 9.51474 9.6054 8.96378 9.6054 8.29475C9.6054 7.97992 9.72909 7.66508 9.97646 7.42895Z" fill="white"/>
<path d="M14.4291 12.4663C14.7177 12.1909 14.759 11.7973 14.5116 11.4038C14.3055 11.0889 13.9344 10.9315 13.5221 11.0102C13.3572 11.0496 13.1923 11.1283 13.0274 11.2463C11.7493 12.0728 10.0177 12.0334 8.7396 11.207C8.65714 11.1676 8.57468 11.1283 8.49223 11.0889C8.03871 10.8922 7.5852 10.9709 7.33783 11.3644C7.04923 11.758 7.09046 12.1909 7.46151 12.545C7.54397 12.6238 7.62643 12.6631 7.66766 12.7418L7.70889 12.7812C8.28609 13.2141 8.98697 13.4896 9.894 13.6076L9.35803 14.1192C8.90452 14.5521 8.40978 15.0244 7.95626 15.4573C7.83258 15.5753 7.66766 15.7721 7.66766 16.0476C7.66766 16.4018 7.8738 16.756 8.24486 16.9134C8.36855 16.9921 8.49223 16.9921 8.61591 16.9921C8.82206 16.9921 9.06943 16.9134 9.23434 16.7166C9.85277 16.1263 10.3475 15.6541 10.8423 15.1818C10.8835 15.1424 10.8835 15.1424 10.8835 15.1424C10.8835 15.1424 10.9247 15.1424 10.9247 15.1818C11.2545 15.536 11.6256 15.8508 11.9554 16.205C12.1203 16.3624 12.2853 16.5199 12.4502 16.6773C12.6563 16.874 12.8212 16.9528 13.0686 16.9528C13.4397 16.9921 13.8519 16.756 14.0169 16.4018C14.1818 16.0869 14.0993 15.6934 13.8107 15.4573C13.3984 15.0637 12.9861 14.6308 12.5326 14.2373L11.8317 13.5683C12.2028 13.5289 12.6151 13.4502 12.9861 13.2928C13.6046 13.096 14.0581 12.8205 14.4291 12.4663Z" fill="white"/>
</svg>
