<svg width="21" height="22" viewBox="0 0 21 22" fill="none" xmlns="http://www.w3.org/2000/svg">
<rect y="0.5" width="21" height="21" rx="10.5" fill="#E5E5E5"/>
<path d="M11.0174 14.6752C7.07119 14.6752 4.82035 11.9162 4.72656 7.3252H6.70326C6.76819 10.6949 8.22547 12.1222 9.37975 12.4165V7.3252H11.241V10.2314C12.3809 10.1063 13.5784 8.78195 13.9824 7.3252H15.8437C15.6915 8.08071 15.388 8.79606 14.9523 9.42651C14.5166 10.057 13.958 10.5889 13.3115 10.9892C14.0332 11.3549 14.6706 11.8725 15.1817 12.5079C15.6928 13.1432 16.0659 13.8819 16.2766 14.6752H14.2277C14.0387 13.9862 13.6544 13.3694 13.1231 12.9022C12.5918 12.4349 11.9371 12.138 11.241 12.0486V14.6752H11.0174Z" fill="white"/>
</svg>
