<svg width="22" height="22" viewBox="0 0 22 22" fill="none" xmlns="http://www.w3.org/2000/svg">
<rect y="0.5" width="22" height="21" rx="10.5" fill="#E5E5E5"/>
<path d="M15.3598 6.83291C14.2732 5.79932 12.8244 5.2251 11.2951 5.2251C8.11585 5.2251 5.54024 7.6751 5.54024 10.6993C5.54024 11.6563 5.82195 12.6134 6.30488 13.4173L5.5 16.2501L8.55854 15.4845C9.40366 15.9056 10.3293 16.1353 11.2951 16.1353C14.4744 16.1353 17.05 13.6853 17.05 10.661C17.0098 9.24463 16.4463 7.8665 15.3598 6.83291ZM14.072 12.6517C13.9512 12.9579 13.3878 13.2642 13.1061 13.3024C12.8646 13.3407 12.5427 13.3407 12.2207 13.2642C12.0195 13.1876 11.7378 13.111 11.4159 12.9579C9.96707 12.3837 9.04146 11.0056 8.96098 10.8907C8.88049 10.8142 8.35732 10.1634 8.35732 9.47432C8.35732 8.78525 8.71951 8.479 8.84024 8.32588C8.96098 8.17275 9.12195 8.17275 9.24268 8.17275C9.32317 8.17275 9.4439 8.17275 9.52439 8.17275C9.60488 8.17275 9.72561 8.13447 9.84634 8.40244C9.96707 8.67041 10.2488 9.35947 10.289 9.39775C10.3293 9.47432 10.3293 9.55088 10.289 9.62744C10.2488 9.704 10.2085 9.78057 10.128 9.85713C10.0476 9.93369 9.96707 10.0485 9.92683 10.0868C9.84634 10.1634 9.76585 10.2399 9.84634 10.3548C9.92683 10.5079 10.2085 10.929 10.6512 11.3118C11.2146 11.7712 11.6573 11.9243 11.8183 12.0009C11.9793 12.0774 12.0598 12.0392 12.1402 11.9626C12.2207 11.886 12.5024 11.5798 12.5829 11.4267C12.6634 11.2735 12.7841 11.3118 12.9049 11.3501C13.0256 11.3884 13.75 11.7329 13.8707 11.8095C14.0317 11.886 14.1122 11.9243 14.1524 11.9626C14.1927 12.0774 14.1927 12.3454 14.072 12.6517Z" fill="white"/>
</svg>
