<svg width="21" height="22" viewBox="0 0 21 22" fill="none" xmlns="http://www.w3.org/2000/svg">
<rect y="0.5" width="21" height="21" rx="10.5" fill="#E5E5E5"/>
<path d="M13.7833 5.5117C11.7823 5.12956 9.70425 5.12956 7.70321 5.5117C6.81813 5.70277 5.70216 6.77276 5.50975 7.61347C5.16342 9.25667 5.16342 10.9381 5.50975 12.5813C5.74064 13.422 6.85661 14.492 7.70321 14.6831C7.74169 14.6831 7.78017 14.7213 7.78017 14.7595V17.167C7.78017 17.2816 7.9341 17.358 8.01106 17.2434L9.16551 16.0588C9.16551 16.0588 10.0891 15.1034 10.243 14.9505C10.243 14.9505 10.2815 14.9123 10.32 14.9123C11.4744 14.9506 12.6673 14.8359 13.8218 14.6448C14.7069 14.4538 15.8228 13.3838 16.0152 12.5431C16.3616 10.8999 16.3616 9.21846 16.0152 7.57526C15.7844 6.77276 14.6684 5.70277 13.7833 5.5117ZM13.8218 12.6959C13.6294 13.0781 13.3985 13.3838 13.0137 13.5748C12.8982 13.6131 12.7828 13.6513 12.6673 13.6895C12.5134 13.6513 12.398 13.6131 12.2825 13.5748C11.0511 13.0781 9.89666 12.3902 8.9731 11.3967C8.47284 10.8234 8.04954 10.1738 7.70321 9.48595C7.54928 9.14203 7.39535 8.83632 7.27991 8.49239C7.16446 8.18668 7.35687 7.88097 7.54928 7.65168C7.74169 7.4224 7.97258 7.26954 8.24195 7.1549C8.43436 7.04026 8.62677 7.11669 8.78069 7.26954C9.08855 7.65168 9.3964 8.03382 9.62729 8.45418C9.78122 8.72167 9.74273 9.02739 9.47336 9.21846C9.3964 9.25667 9.35792 9.29488 9.28095 9.37131C9.24247 9.40953 9.16551 9.44774 9.12703 9.52417C9.05006 9.63881 9.05006 9.75345 9.08855 9.86809C9.3964 10.747 9.97362 11.4349 10.8587 11.817C11.0126 11.8934 11.1281 11.9316 11.3205 11.9316C11.5899 11.8934 11.7053 11.5877 11.8977 11.4349C12.0901 11.282 12.321 11.282 12.5519 11.3967C12.7443 11.5113 12.9367 11.6641 13.1676 11.817C13.36 11.9699 13.5524 12.0845 13.7448 12.2374C13.8603 12.3138 13.8988 12.5049 13.8218 12.6959ZM12.2056 9.82988C12.1286 9.82988 12.1671 9.82988 12.2056 9.82988C12.0516 9.82988 12.0132 9.75345 11.9747 9.63881C11.9747 9.56238 11.9747 9.44774 11.9362 9.37131C11.8977 9.21846 11.8207 9.0656 11.6668 8.95096C11.5899 8.91274 11.5129 8.87453 11.4359 8.83632C11.3205 8.7981 11.2435 8.7981 11.1281 8.7981C11.0126 8.75989 10.9741 8.68346 10.9741 8.56882C10.9741 8.49239 11.0896 8.41596 11.1666 8.41596C11.7823 8.45418 12.244 8.7981 12.321 9.52417C12.321 9.56238 12.321 9.63881 12.321 9.67702C12.321 9.75345 12.2825 9.82988 12.2056 9.82988ZM11.8207 8.14847C11.6283 8.07204 11.4359 7.99561 11.205 7.9574C11.1281 7.9574 11.0126 7.91918 10.9357 7.91918C10.8202 7.91918 10.7433 7.84275 10.7817 7.72811C10.7817 7.61347 10.8587 7.53704 10.9741 7.57526C11.359 7.61347 11.7053 7.6899 12.0516 7.84275C12.7443 8.18668 13.1291 8.75989 13.2446 9.52417C13.2446 9.56238 13.2446 9.6006 13.2446 9.63881C13.2446 9.71524 13.2446 9.79166 13.2446 9.90631C13.2446 9.94452 13.2446 9.98274 13.2446 10.0209C13.2061 10.1738 12.9367 10.212 12.8982 10.0209C12.8982 9.98274 12.8598 9.90631 12.8598 9.86809C12.8598 9.52417 12.7828 9.18024 12.6289 8.87453C12.398 8.5306 12.1286 8.30132 11.8207 8.14847ZM13.8988 10.4413C13.7833 10.4413 13.7063 10.3267 13.7063 10.212C13.7063 9.98274 13.6679 9.75345 13.6294 9.52417C13.4755 8.30132 12.4749 7.30776 11.282 7.11669C11.0896 7.07847 10.8972 7.07847 10.7433 7.04026C10.6278 7.04026 10.4739 7.04026 10.4354 6.8874C10.3969 6.77276 10.5124 6.65812 10.6278 6.65812C10.6663 6.65812 10.7048 6.65812 10.7048 6.65812C10.7817 6.65812 12.2825 6.69633 10.7048 6.65812C12.321 6.69633 13.6679 7.76633 13.9372 9.37131C13.9757 9.63881 14.0142 9.90631 14.0142 10.212C14.0912 10.3267 14.0142 10.4413 13.8988 10.4413Z" fill="white"/>
</svg>
